<mxfile host="app.diagrams.net" agent="Mozilla/5.0 (Macintosh; Intel Mac OS X 10_15_7) AppleWebKit/537.36 (KHTML, like Gecko) Chrome/134.0.0.0 Safari/537.36" version="26.2.4">
  <diagram name="Page-1" id="LDwTZcoctXZr6dDeas7G">
    <mxGraphModel dx="2092" dy="1884" grid="1" gridSize="10" guides="1" tooltips="1" connect="1" arrows="1" fold="1" page="1" pageScale="1" pageWidth="827" pageHeight="1169" math="0" shadow="0">
      <root>
        <mxCell id="0" />
        <mxCell id="1" parent="0" />
        <mxCell id="zSB1sAxi5yhf-KkJUIBl-55" value="" style="rounded=0;whiteSpace=wrap;html=1;fillColor=#f9f7ed;strokeColor=#36393d;" vertex="1" parent="1">
          <mxGeometry x="-180" width="1170" height="670" as="geometry" />
        </mxCell>
        <mxCell id="ukrMWYRyUX1q8MgAGlLr-2" value="" style="rounded=0;whiteSpace=wrap;html=1;strokeColor=#0000CC;dashed=1;strokeWidth=2;" parent="1" vertex="1">
          <mxGeometry x="-114" y="59.5" width="160" height="580.5" as="geometry" />
        </mxCell>
        <mxCell id="ukrMWYRyUX1q8MgAGlLr-5" value="" style="rounded=0;whiteSpace=wrap;html=1;strokeColor=#660000;dashed=1;strokeWidth=2;" parent="1" vertex="1">
          <mxGeometry x="90" y="60" width="630" height="580" as="geometry" />
        </mxCell>
        <mxCell id="ukrMWYRyUX1q8MgAGlLr-6" value="&lt;font style=&quot;font-size: 18px;&quot;&gt;Data Warehouse&lt;/font&gt;" style="rounded=0;whiteSpace=wrap;html=1;fillColor=none;strokeColor=none;fontStyle=1;fontSize=17;" parent="1" vertex="1">
          <mxGeometry x="312" y="27" width="190" height="30" as="geometry" />
        </mxCell>
        <mxCell id="pe7CS6I070rvGqSp0qRm-1" value="&lt;font style=&quot;font-size: 16px;&quot;&gt;Bronze Layer&lt;/font&gt;" style="rounded=0;whiteSpace=wrap;html=1;fillColor=#ffe6cc;strokeColor=#d79b00;fontColor=#660000;" parent="1" vertex="1">
          <mxGeometry x="110" y="100" width="150" height="30" as="geometry" />
        </mxCell>
        <mxCell id="pe7CS6I070rvGqSp0qRm-2" value="" style="rounded=0;whiteSpace=wrap;html=1;fillColor=none;strokeColor=#d79b00;fontColor=#660000;" parent="1" vertex="1">
          <mxGeometry x="110" y="135" width="150" height="495" as="geometry" />
        </mxCell>
        <mxCell id="pe7CS6I070rvGqSp0qRm-3" value="" style="rounded=0;whiteSpace=wrap;html=1;strokeColor=#006600;dashed=1;strokeWidth=2;" parent="1" vertex="1">
          <mxGeometry x="768" y="58" width="160" height="582" as="geometry" />
        </mxCell>
        <mxCell id="pe7CS6I070rvGqSp0qRm-4" value="&lt;font style=&quot;font-size: 18px;&quot;&gt;Consume&lt;/font&gt;" style="rounded=0;whiteSpace=wrap;html=1;fillColor=none;strokeColor=none;fontStyle=1;fontSize=16;" parent="1" vertex="1">
          <mxGeometry x="773.5" y="28" width="139" height="30" as="geometry" />
        </mxCell>
        <mxCell id="zSB1sAxi5yhf-KkJUIBl-1" value="" style="image;aspect=fixed;html=1;points=[];align=center;fontSize=12;image=img/lib/azure2/general/Folder_Blank.svg;" vertex="1" parent="1">
          <mxGeometry x="-67.91999999999999" y="188.5" width="62.84" height="51" as="geometry" />
        </mxCell>
        <mxCell id="zSB1sAxi5yhf-KkJUIBl-2" value="CRM" style="text;html=1;align=center;verticalAlign=middle;whiteSpace=wrap;rounded=0;" vertex="1" parent="1">
          <mxGeometry x="-60.41999999999999" y="247.5" width="45" height="14" as="geometry" />
        </mxCell>
        <mxCell id="zSB1sAxi5yhf-KkJUIBl-3" value="" style="image;aspect=fixed;html=1;points=[];align=center;fontSize=12;image=img/lib/azure2/general/Folder_Blank.svg;" vertex="1" parent="1">
          <mxGeometry x="-69.5" y="334.5" width="62.84" height="51" as="geometry" />
        </mxCell>
        <mxCell id="zSB1sAxi5yhf-KkJUIBl-4" value="ERP" style="text;html=1;align=center;verticalAlign=middle;whiteSpace=wrap;rounded=0;" vertex="1" parent="1">
          <mxGeometry x="-61" y="393.5" width="45" height="14" as="geometry" />
        </mxCell>
        <mxCell id="zSB1sAxi5yhf-KkJUIBl-5" value="" style="endArrow=none;dashed=1;html=1;dashPattern=1 3;strokeWidth=2;rounded=0;" edge="1" parent="1">
          <mxGeometry width="50" height="50" relative="1" as="geometry">
            <mxPoint x="-90" y="508.5" as="sourcePoint" />
            <mxPoint x="26" y="508.5" as="targetPoint" />
          </mxGeometry>
        </mxCell>
        <mxCell id="zSB1sAxi5yhf-KkJUIBl-7" value="Object Type: CSV Files&lt;div&gt;&lt;br&gt;&lt;div&gt;Interface: Files in Folder&lt;/div&gt;&lt;/div&gt;" style="rounded=0;whiteSpace=wrap;html=1;strokeColor=none;" vertex="1" parent="1">
          <mxGeometry x="-110" y="518.5" width="153" height="60" as="geometry" />
        </mxCell>
        <mxCell id="zSB1sAxi5yhf-KkJUIBl-8" value="" style="image;aspect=fixed;html=1;points=[];align=center;fontSize=12;image=img/lib/azure2/general/File.svg;" vertex="1" parent="1">
          <mxGeometry x="-15.420000000000016" y="218.5" width="23.54" height="29" as="geometry" />
        </mxCell>
        <mxCell id="zSB1sAxi5yhf-KkJUIBl-9" value="" style="image;aspect=fixed;html=1;points=[];align=center;fontSize=12;image=img/lib/azure2/general/File.svg;" vertex="1" parent="1">
          <mxGeometry x="-13.000000000000014" y="364.5" width="23.54" height="29" as="geometry" />
        </mxCell>
        <mxCell id="zSB1sAxi5yhf-KkJUIBl-10" value="" style="shape=datastore;whiteSpace=wrap;html=1;fillColor=#ffe6cc;strokeColor=#d79b00;" vertex="1" parent="1">
          <mxGeometry x="165" y="270" width="45" height="60" as="geometry" />
        </mxCell>
        <mxCell id="zSB1sAxi5yhf-KkJUIBl-11" value="&lt;font style=&quot;font-size: 16px;&quot;&gt;Silver Layer&lt;/font&gt;" style="rounded=0;whiteSpace=wrap;html=1;fillColor=#f5f5f5;strokeColor=#666666;fontColor=#333333;" vertex="1" parent="1">
          <mxGeometry x="332" y="100" width="150" height="30" as="geometry" />
        </mxCell>
        <mxCell id="zSB1sAxi5yhf-KkJUIBl-12" value="" style="rounded=0;whiteSpace=wrap;html=1;fillColor=none;strokeColor=#666666;fontColor=#333333;" vertex="1" parent="1">
          <mxGeometry x="332" y="135" width="150" height="495" as="geometry" />
        </mxCell>
        <mxCell id="zSB1sAxi5yhf-KkJUIBl-13" value="" style="shape=datastore;whiteSpace=wrap;html=1;fillColor=#f5f5f5;strokeColor=#666666;fontColor=#333333;" vertex="1" parent="1">
          <mxGeometry x="387" y="270" width="45" height="60" as="geometry" />
        </mxCell>
        <mxCell id="zSB1sAxi5yhf-KkJUIBl-14" value="&lt;font style=&quot;font-size: 16px;&quot;&gt;Gold Layer&lt;/font&gt;" style="rounded=0;whiteSpace=wrap;html=1;fillColor=#fff2cc;strokeColor=#d6b656;" vertex="1" parent="1">
          <mxGeometry x="550" y="95" width="150" height="30" as="geometry" />
        </mxCell>
        <mxCell id="zSB1sAxi5yhf-KkJUIBl-15" value="" style="rounded=0;whiteSpace=wrap;html=1;fillColor=none;strokeColor=#d6b656;" vertex="1" parent="1">
          <mxGeometry x="550" y="130" width="150" height="500" as="geometry" />
        </mxCell>
        <mxCell id="zSB1sAxi5yhf-KkJUIBl-16" value="" style="shape=datastore;whiteSpace=wrap;html=1;fillColor=#fff2cc;strokeColor=#d6b656;" vertex="1" parent="1">
          <mxGeometry x="602.5" y="270" width="45" height="60" as="geometry" />
        </mxCell>
        <mxCell id="zSB1sAxi5yhf-KkJUIBl-20" value="" style="shape=singleArrow;whiteSpace=wrap;html=1;fillColor=#dae8fc;strokeColor=#6c8ebf;gradientColor=#7ea6e0;" vertex="1" parent="1">
          <mxGeometry x="696" y="284.5" width="78" height="31" as="geometry" />
        </mxCell>
        <mxCell id="zSB1sAxi5yhf-KkJUIBl-21" value="" style="shape=singleArrow;whiteSpace=wrap;html=1;fillColor=#dae8fc;strokeColor=#6c8ebf;gradientColor=#7ea6e0;" vertex="1" parent="1">
          <mxGeometry x="479" y="287" width="78" height="31" as="geometry" />
        </mxCell>
        <mxCell id="zSB1sAxi5yhf-KkJUIBl-22" value="" style="shape=singleArrow;whiteSpace=wrap;html=1;fillColor=#dae8fc;strokeColor=#6c8ebf;gradientColor=#7ea6e0;" vertex="1" parent="1">
          <mxGeometry x="259" y="287" width="78" height="31" as="geometry" />
        </mxCell>
        <mxCell id="zSB1sAxi5yhf-KkJUIBl-23" value="" style="shape=singleArrow;whiteSpace=wrap;html=1;fillColor=#dae8fc;strokeColor=#6c8ebf;gradientColor=#7ea6e0;" vertex="1" parent="1">
          <mxGeometry x="37" y="287" width="78" height="31" as="geometry" />
        </mxCell>
        <mxCell id="zSB1sAxi5yhf-KkJUIBl-24" value="RAW Data" style="text;html=1;align=center;verticalAlign=middle;whiteSpace=wrap;rounded=0;" vertex="1" parent="1">
          <mxGeometry x="155" y="342.75" width="65" height="14" as="geometry" />
        </mxCell>
        <mxCell id="zSB1sAxi5yhf-KkJUIBl-25" value="Cleaned, Standardised data" style="text;html=1;align=center;verticalAlign=middle;whiteSpace=wrap;rounded=0;" vertex="1" parent="1">
          <mxGeometry x="342" y="334.5" width="130" height="37.25" as="geometry" />
        </mxCell>
        <mxCell id="zSB1sAxi5yhf-KkJUIBl-27" value="Business-Ready Data" style="text;html=1;align=center;verticalAlign=middle;whiteSpace=wrap;rounded=0;" vertex="1" parent="1">
          <mxGeometry x="556" y="342.75" width="140" height="14" as="geometry" />
        </mxCell>
        <mxCell id="zSB1sAxi5yhf-KkJUIBl-28" value="" style="endArrow=none;dashed=1;html=1;dashPattern=1 3;strokeWidth=2;rounded=0;" edge="1" parent="1">
          <mxGeometry width="50" height="50" relative="1" as="geometry">
            <mxPoint x="126" y="385.5" as="sourcePoint" />
            <mxPoint x="242" y="385.5" as="targetPoint" />
          </mxGeometry>
        </mxCell>
        <mxCell id="zSB1sAxi5yhf-KkJUIBl-29" value="&lt;div style=&quot;&quot;&gt;&lt;span style=&quot;background-color: transparent; color: light-dark(rgb(0, 0, 0), rgb(255, 255, 255));&quot;&gt;&lt;b&gt;Object Type&lt;/b&gt;: Tables&lt;/span&gt;&lt;/div&gt;&lt;div&gt;&lt;br&gt;&lt;div style=&quot;&quot;&gt;&lt;b&gt;Load&lt;/b&gt;:&amp;nbsp;&lt;/div&gt;&lt;div&gt;&lt;ul&gt;&lt;li&gt;Batch Processing&lt;/li&gt;&lt;li&gt;Full Load&lt;/li&gt;&lt;li&gt;Truncate &amp;amp; Insert&lt;/li&gt;&lt;/ul&gt;&lt;div&gt;No Transformations&lt;/div&gt;&lt;/div&gt;&lt;/div&gt;&lt;div&gt;&lt;br&gt;&lt;/div&gt;&lt;div&gt;&lt;b&gt;Data Model&lt;/b&gt;: None (as-is)&lt;/div&gt;" style="rounded=0;whiteSpace=wrap;html=1;strokeColor=none;align=left;" vertex="1" parent="1">
          <mxGeometry x="116" y="395.5" width="140" height="164.5" as="geometry" />
        </mxCell>
        <mxCell id="zSB1sAxi5yhf-KkJUIBl-34" value="" style="endArrow=none;dashed=1;html=1;dashPattern=1 3;strokeWidth=2;rounded=0;" edge="1" parent="1">
          <mxGeometry width="50" height="50" relative="1" as="geometry">
            <mxPoint x="345" y="385.5" as="sourcePoint" />
            <mxPoint x="461" y="385.5" as="targetPoint" />
          </mxGeometry>
        </mxCell>
        <mxCell id="zSB1sAxi5yhf-KkJUIBl-35" value="&lt;div style=&quot;&quot;&gt;&lt;span style=&quot;background-color: transparent; color: light-dark(rgb(0, 0, 0), rgb(255, 255, 255));&quot;&gt;&lt;b&gt;Object Type&lt;/b&gt;: Tables&lt;/span&gt;&lt;/div&gt;&lt;div&gt;&lt;br&gt;&lt;div style=&quot;&quot;&gt;&lt;b&gt;Load&lt;/b&gt;:&amp;nbsp;&lt;/div&gt;&lt;div&gt;&lt;ul&gt;&lt;li&gt;Batch Processing&lt;/li&gt;&lt;li&gt;Full Load&lt;/li&gt;&lt;li&gt;Truncate &amp;amp; Insert&lt;/li&gt;&lt;/ul&gt;&lt;div&gt;&lt;b&gt;Transformations:&lt;/b&gt;&lt;/div&gt;&lt;/div&gt;&lt;/div&gt;&lt;div&gt;&lt;div style=&quot;&quot;&gt;&lt;div style=&quot;&quot;&gt;&lt;span style=&quot;background-color: transparent; color: light-dark(rgb(0, 0, 0), rgb(255, 255, 255));&quot;&gt;Data Cleansing&lt;/span&gt;&lt;/div&gt;&lt;span style=&quot;background-color: transparent; color: light-dark(rgb(0, 0, 0), rgb(255, 255, 255));&quot;&gt;&lt;div style=&quot;&quot;&gt;&lt;span style=&quot;background-color: transparent; color: light-dark(rgb(0, 0, 0), rgb(255, 255, 255));&quot;&gt;Data Standardisation&lt;/span&gt;&lt;/div&gt;&lt;/span&gt;&lt;span style=&quot;background-color: transparent; color: light-dark(rgb(0, 0, 0), rgb(255, 255, 255));&quot;&gt;&lt;div style=&quot;&quot;&gt;&lt;span style=&quot;background-color: transparent; color: light-dark(rgb(0, 0, 0), rgb(255, 255, 255));&quot;&gt;Derived Columns&lt;/span&gt;&lt;/div&gt;&lt;/span&gt;&lt;span style=&quot;background-color: transparent; color: light-dark(rgb(0, 0, 0), rgb(255, 255, 255));&quot;&gt;&lt;div style=&quot;&quot;&gt;&lt;span style=&quot;background-color: transparent; color: light-dark(rgb(0, 0, 0), rgb(255, 255, 255));&quot;&gt;Data Enrichment&lt;/span&gt;&lt;/div&gt;&lt;/span&gt;&lt;/div&gt;&lt;/div&gt;&lt;div&gt;&lt;b&gt;&lt;br&gt;&lt;/b&gt;&lt;/div&gt;&lt;div&gt;&lt;b style=&quot;background-color: transparent; color: light-dark(rgb(0, 0, 0), rgb(255, 255, 255));&quot;&gt;Data Model&lt;/b&gt;&lt;span style=&quot;background-color: transparent; color: light-dark(rgb(0, 0, 0), rgb(255, 255, 255));&quot;&gt;: None (as-is)&lt;/span&gt;&lt;/div&gt;" style="rounded=0;whiteSpace=wrap;html=1;strokeColor=none;align=left;" vertex="1" parent="1">
          <mxGeometry x="339" y="395.5" width="141" height="214.5" as="geometry" />
        </mxCell>
        <mxCell id="zSB1sAxi5yhf-KkJUIBl-36" value="" style="endArrow=none;dashed=1;html=1;dashPattern=1 3;strokeWidth=2;rounded=0;" edge="1" parent="1">
          <mxGeometry width="50" height="50" relative="1" as="geometry">
            <mxPoint x="562" y="385.5" as="sourcePoint" />
            <mxPoint x="678" y="385.5" as="targetPoint" />
          </mxGeometry>
        </mxCell>
        <mxCell id="zSB1sAxi5yhf-KkJUIBl-37" value="&lt;div style=&quot;&quot;&gt;&lt;span style=&quot;background-color: transparent; color: light-dark(rgb(0, 0, 0), rgb(255, 255, 255));&quot;&gt;&lt;b&gt;Object Type&lt;/b&gt;: Views&lt;/span&gt;&lt;/div&gt;&lt;div&gt;&lt;br&gt;&lt;div style=&quot;&quot;&gt;No Load&lt;/div&gt;&lt;div style=&quot;&quot;&gt;&lt;br&gt;&lt;/div&gt;&lt;div&gt;&lt;div&gt;&lt;b&gt;Transformations:&lt;/b&gt;&lt;/div&gt;&lt;/div&gt;&lt;/div&gt;&lt;div&gt;&lt;span style=&quot;background-color: transparent; color: light-dark(rgb(0, 0, 0), rgb(255, 255, 255));&quot;&gt;Data Integrations&lt;/span&gt;&lt;br&gt;&lt;span style=&quot;background-color: transparent; color: light-dark(rgb(0, 0, 0), rgb(255, 255, 255));&quot;&gt;Aggregations&lt;/span&gt;&lt;br&gt;&lt;span style=&quot;background-color: transparent; color: light-dark(rgb(0, 0, 0), rgb(255, 255, 255));&quot;&gt;Business Logic&lt;/span&gt;&lt;/div&gt;&lt;div&gt;&lt;br&gt;&lt;/div&gt;&lt;div&gt;&lt;b&gt;Data Model&lt;/b&gt;:&lt;/div&gt;&lt;div&gt;Star Schema&lt;/div&gt;&lt;div&gt;Flat Table structure&lt;/div&gt;&lt;div&gt;Aggregated table&lt;/div&gt;" style="rounded=0;whiteSpace=wrap;html=1;strokeColor=none;align=left;" vertex="1" parent="1">
          <mxGeometry x="557" y="395.5" width="136" height="184.5" as="geometry" />
        </mxCell>
        <mxCell id="zSB1sAxi5yhf-KkJUIBl-39" value="" style="image;aspect=fixed;html=1;points=[];align=center;fontSize=12;image=img/lib/azure2/power_platform/PowerBI.svg;" vertex="1" parent="1">
          <mxGeometry x="800" y="200" width="36" height="48" as="geometry" />
        </mxCell>
        <mxCell id="zSB1sAxi5yhf-KkJUIBl-40" value="" style="verticalLabelPosition=bottom;aspect=fixed;html=1;shape=mxgraph.salesforce.analytics;" vertex="1" parent="1">
          <mxGeometry x="852.5" y="200" width="49.28" height="48.3" as="geometry" />
        </mxCell>
        <mxCell id="zSB1sAxi5yhf-KkJUIBl-48" value="" style="shape=image;html=1;verticalAlign=top;verticalLabelPosition=bottom;labelBackgroundColor=#ffffff;imageAspect=0;aspect=fixed;image=https://cdn2.iconfinder.com/data/icons/vivid/48/search-128.png" vertex="1" parent="1">
          <mxGeometry x="820.25" y="297.25" width="45.5" height="45.5" as="geometry" />
        </mxCell>
        <mxCell id="zSB1sAxi5yhf-KkJUIBl-51" value="SQL queries" style="text;html=1;align=center;verticalAlign=middle;whiteSpace=wrap;rounded=0;" vertex="1" parent="1">
          <mxGeometry x="810.5" y="343" width="79.5" height="14" as="geometry" />
        </mxCell>
        <mxCell id="zSB1sAxi5yhf-KkJUIBl-52" value="" style="points=[];aspect=fixed;html=1;align=center;shadow=0;dashed=0;fillColor=#FF6A00;strokeColor=none;shape=mxgraph.alibaba_cloud.machine_learning;" vertex="1" parent="1">
          <mxGeometry x="823.1" y="430" width="49.8" height="50.099999999999994" as="geometry" />
        </mxCell>
        <mxCell id="zSB1sAxi5yhf-KkJUIBl-53" value="Machine Learning" style="text;html=1;align=center;verticalAlign=middle;whiteSpace=wrap;rounded=0;" vertex="1" parent="1">
          <mxGeometry x="795.25" y="495.75" width="101.75" height="14" as="geometry" />
        </mxCell>
        <mxCell id="zSB1sAxi5yhf-KkJUIBl-54" value="MySQL Data Warehouse - High Level Architecture" style="rounded=0;whiteSpace=wrap;html=1;fontSize=20;" vertex="1" parent="1">
          <mxGeometry x="160" y="-30" width="480" height="30" as="geometry" />
        </mxCell>
        <mxCell id="ukrMWYRyUX1q8MgAGlLr-4" value="&lt;font style=&quot;font-size: 18px;&quot;&gt;Data Sources&lt;/font&gt;" style="rounded=0;whiteSpace=wrap;html=1;fillColor=none;strokeColor=none;fontStyle=1;fontSize=16;" parent="1" vertex="1">
          <mxGeometry x="-94" y="28.5" width="120" height="30" as="geometry" />
        </mxCell>
        <mxCell id="zSB1sAxi5yhf-KkJUIBl-56" value="" style="sketch=0;outlineConnect=0;fontColor=#232F3E;gradientColor=none;fillColor=#C925D1;strokeColor=default;dashed=0;verticalLabelPosition=bottom;verticalAlign=top;align=center;html=1;fontSize=12;fontStyle=0;aspect=fixed;pointerEvents=1;shape=mxgraph.aws4.rds_mysql_instance;fillStyle=solid;" vertex="1" parent="1">
          <mxGeometry x="90" y="27" width="33" height="33" as="geometry" />
        </mxCell>
      </root>
    </mxGraphModel>
  </diagram>
</mxfile>
